<svg width="396" height="396" viewBox="0 0 396 396" fill="none" xmlns="http://www.w3.org/2000/svg">
<circle cx="198" cy="198" r="198" fill="#62BBC1"/>
<g clip-path="url(#clip0_347_16)">
<path d="M160.125 234.875C153.244 234.875 147.667 240.453 147.667 247.333C147.667 254.214 153.244 259.792 160.125 259.792C167.006 259.792 172.583 254.214 172.583 247.333C172.583 240.453 167.006 234.875 160.125 234.875Z" fill="#0F0F0F"/>
<path d="M222.417 247.333C222.417 240.453 227.994 234.875 234.875 234.875C241.756 234.875 247.333 240.453 247.333 247.333C247.333 254.214 241.756 259.792 234.875 259.792C227.994 259.792 222.417 254.214 222.417 247.333Z" fill="#0F0F0F"/>
<path fill-rule="evenodd" clip-rule="evenodd" d="M197.5 60.4583C183.739 60.4583 172.583 71.6139 172.583 85.375C172.583 94.5977 177.594 102.65 185.042 106.958V135.208H122.75C102.108 135.208 85.375 151.942 85.375 172.583V297.167C85.375 317.809 102.108 334.542 122.75 334.542H272.25C292.892 334.542 309.625 317.809 309.625 297.167V172.583C309.625 151.942 292.892 135.208 272.25 135.208H209.958V106.958C217.406 102.65 222.417 94.5977 222.417 85.375C222.417 71.6139 211.261 60.4583 197.5 60.4583ZM110.292 172.583C110.292 165.703 115.87 160.125 122.75 160.125H139.967L157.997 196.184C162.218 204.626 170.845 209.958 180.283 209.958H214.717C224.155 209.958 232.782 204.626 237.003 196.184L255.033 160.125H272.25C279.131 160.125 284.708 165.703 284.708 172.583V297.167C284.708 304.047 279.131 309.625 272.25 309.625H122.75C115.87 309.625 110.292 304.047 110.292 297.167V172.583ZM214.717 185.042L227.176 160.125H167.825L180.283 185.042H214.717Z" fill="#0F0F0F"/>
<path d="M60.4583 222.417C53.5778 222.417 48 227.994 48 234.875V259.792C48 266.672 53.5778 272.25 60.4583 272.25C67.3388 272.25 72.9167 266.672 72.9167 259.792V234.875C72.9167 227.994 67.3388 222.417 60.4583 222.417Z" fill="#0F0F0F"/>
<path d="M322.083 234.875C322.083 227.994 327.661 222.417 334.542 222.417C341.422 222.417 347 227.994 347 234.875V259.792C347 266.672 341.422 272.25 334.542 272.25C327.661 272.25 322.083 266.672 322.083 259.792V234.875Z" fill="#0F0F0F"/>
</g>
<defs>
<clipPath id="clip0_347_16">
<rect width="299" height="299" fill="white" transform="translate(48 48)"/>
</clipPath>
</defs>
</svg>
